<?xml version="1.0" encoding="utf-8" ?>
<svg baseProfile="full" height="1020" style="font-family:Noto Sans KR, Apple SD Gothic Neo, sans-serif;" version="1.1" viewBox="0 0 1600 1020" width="1600" xmlns="http://www.w3.org/2000/svg" xmlns:ev="http://www.w3.org/2001/xml-events" xmlns:xlink="http://www.w3.org/1999/xlink"><defs><marker id="arrow" markerWidth="10" markerHeight="10" orient="auto" refX="10" refY="5" markerUnits="userSpaceOnUse"><polyline points="0,1 9,5 0,9" fill="none" stroke="#bb5a21" stroke-width="1.8" stroke-linecap="round" stroke-linejoin="round" /></marker></defs><rect fill="#fbf7f0" height="100%" width="100%" x="0" y="0" /><rect fill="#fffdfa" height="912" rx="34" ry="34" stroke="#d9cfbf" stroke-width="2" width="1492" x="54" y="52" /><text fill="#bb5a21" font-size="22" font-weight="800" x="94" y="104">전체 구조</text><text fill="#121316" font-size="46" font-weight="800" x="94" y="156">멀티모달 인덱싱</text><text fill="#5b6169" font-size="21" font-weight="500" x="94" y="202">원본 자료를 3계층(Document-Chunk-Element)으로 변환하고</text><text fill="#5b6169" font-size="21" font-weight="500" x="94" y="232">OpenSearch에 적재하는 파이프라인</text><rect fill="#efe1d4" height="186" rx="26" ry="26" stroke="#d9cfbf" stroke-width="2.2" width="280" x="92" y="300" /><text fill="#121316" font-size="30" font-weight="800" x="118" y="346">입력 자료</text><line stroke="#d9cfbf" stroke-width="1.6" x1="118" x2="346" y1="362" y2="362" /><text fill="#5b6169" font-size="21" font-weight="500" x="118" y="396">6개 Excel 파일</text><text fill="#5b6169" font-size="21" font-weight="500" x="118" y="426">작업표준서 35건</text><text fill="#5b6169" font-size="21" font-weight="500" x="118" y="456">DOCX</text><text fill="#5b6169" font-size="21" font-weight="500" x="118" y="486">QA노하우</text><text fill="#5b6169" font-size="21" font-weight="500" x="118" y="516">4도메인</text><rect fill="#efe1d4" height="186" rx="26" ry="26" stroke="#d9cfbf" stroke-width="2.2" width="300" x="432" y="300" /><text fill="#121316" font-size="30" font-weight="800" x="458" y="346">변환 파이프라인</text><line stroke="#d9cfbf" stroke-width="1.6" x1="458" x2="706" y1="362" y2="362" /><text fill="#5b6169" font-size="21" font-weight="500" x="458" y="396">transform_for_ra</text><text fill="#5b6169" font-size="21" font-weight="500" x="458" y="426">g.py</text><text fill="#5b6169" font-size="21" font-weight="500" x="458" y="456">텍스트 파싱 ·</text><text fill="#5b6169" font-size="21" font-weight="500" x="458" y="486">OCR/VLM</text><text fill="#5b6169" font-size="21" font-weight="500" x="458" y="516">PDF → 구조화</text><text fill="#5b6169" font-size="21" font-weight="500" x="458" y="546">JSON</text><text fill="#5b6169" font-size="21" font-weight="500" x="458" y="576">메타데이터 추출</text><rect fill="#fffdfa" height="80" rx="26" ry="26" stroke="#d9cfbf" stroke-width="2.2" width="260" x="792" y="274" /><text fill="#121316" font-size="30" font-weight="800" x="818" y="320">Document 계층</text><line stroke="#d9cfbf" stroke-width="1.6" x1="818" x2="1026" y1="336" y2="336" /><text fill="#5b6169" font-size="21" font-weight="500" x="818" y="370">파일 단위</text><text fill="#5b6169" font-size="21" font-weight="500" x="818" y="400">정보</text><text fill="#5b6169" font-size="21" font-weight="500" x="818" y="430">도메인 ·</text><text fill="#5b6169" font-size="21" font-weight="500" x="818" y="460">모달리티 ·</text><text fill="#5b6169" font-size="21" font-weight="500" x="818" y="490">생성일</text><rect fill="#fffdfa" height="80" rx="26" ry="26" stroke="#d9cfbf" stroke-width="2.2" width="260" x="792" y="368" /><text fill="#121316" font-size="30" font-weight="800" x="818" y="414">Chunk 계층</text><line stroke="#d9cfbf" stroke-width="1.6" x1="818" x2="1026" y1="430" y2="430" /><text fill="#5b6169" font-size="21" font-weight="500" x="818" y="464">문맥 단위</text><text fill="#5b6169" font-size="21" font-weight="500" x="818" y="494">분리</text><text fill="#5b6169" font-size="21" font-weight="500" x="818" y="524">순서번호 ·</text><text fill="#5b6169" font-size="21" font-weight="500" x="818" y="554">텍스트 본문</text><rect fill="#fffdfa" height="80" rx="26" ry="26" stroke="#d9cfbf" stroke-width="2.2" width="260" x="792" y="462" /><text fill="#121316" font-size="30" font-weight="800" x="818" y="508">Element 계층</text><line stroke="#d9cfbf" stroke-width="1.6" x1="818" x2="1026" y1="524" y2="524" /><text fill="#5b6169" font-size="21" font-weight="500" x="818" y="558">세부 요소</text><text fill="#5b6169" font-size="21" font-weight="500" x="818" y="588">(텍스트/표/이</text><text fill="#5b6169" font-size="21" font-weight="500" x="818" y="618">미지)</text><text fill="#5b6169" font-size="21" font-weight="500" x="818" y="648">검색 대상</text><text fill="#5b6169" font-size="21" font-weight="500" x="818" y="678">단위</text><rect fill="#fffdfa" height="186" rx="26" ry="26" stroke="#d9cfbf" stroke-width="2.2" width="380" x="1112" y="300" /><text fill="#121316" font-size="30" font-weight="800" x="1138" y="346">OpenSearch 적재</text><line stroke="#d9cfbf" stroke-width="1.6" x1="1138" x2="1466" y1="362" y2="362" /><text fill="#5b6169" font-size="21" font-weight="500" x="1138" y="396">인덱스 스키마 설계</text><text fill="#5b6169" font-size="21" font-weight="500" x="1138" y="426">n8n 자동화 워크플로우</text><text fill="#5b6169" font-size="21" font-weight="500" x="1138" y="456">cases 194건 · QA</text><text fill="#5b6169" font-size="21" font-weight="500" x="1138" y="486">32건</text><text fill="#5b6169" font-size="21" font-weight="500" x="1138" y="516">query_index_seed 생성</text><line marker-end="url(#arrow)" stroke="#bb5a21" stroke-width="3" x1="372" x2="432" y1="393" y2="393" /><polyline fill="none" marker-end="url(#arrow)" points="732,393 762,393 762,314 792,314" stroke="#bb5a21" stroke-width="3" /><polyline fill="none" marker-end="url(#arrow)" points="732,393 762,393 762,408 792,408" stroke="#bb5a21" stroke-width="3" /><polyline fill="none" marker-end="url(#arrow)" points="732,393 762,393 762,502 792,502" stroke="#bb5a21" stroke-width="3" /><polyline fill="none" marker-end="url(#arrow)" points="1052,314 1082,314 1082,393 1112,393" stroke="#bb5a21" stroke-width="3" /><polyline fill="none" marker-end="url(#arrow)" points="1052,408 1082,408 1082,393 1112,393" stroke="#bb5a21" stroke-width="3" /><polyline fill="none" marker-end="url(#arrow)" points="1052,502 1082,502 1082,393 1112,393" stroke="#bb5a21" stroke-width="3" /><line marker-end="url(#arrow)" stroke="#bb5a21" stroke-dasharray="10 6" stroke-width="3" x1="920" x2="920" y1="354" y2="368" /><line marker-end="url(#arrow)" stroke="#bb5a21" stroke-dasharray="10 6" stroke-width="3" x1="920" x2="920" y1="448" y2="462" /><text fill="#5b6169" font-size="18" font-weight="700" text-anchor="middle" x="800" y="560">194건 STAR 사례 + 32 QA쌍 + 표준서 카탈로그</text><rect fill="#f4ece2" height="44" rx="22" ry="22" stroke="#d9cfbf" stroke-width="1.8" width="212" x="92" y="760" /><text fill="#121316" font-size="18" font-weight="700" x="110" y="789">Excel → JSON 변환</text><rect fill="#f4ece2" height="44" rx="22" ry="22" stroke="#d9cfbf" stroke-width="1.8" width="192" x="316" y="760" /><text fill="#121316" font-size="18" font-weight="700" x="334" y="789">OCR/VLM 메타추출</text><rect fill="#f4ece2" height="44" rx="22" ry="22" stroke="#d9cfbf" stroke-width="1.8" width="132" x="520" y="760" /><text fill="#121316" font-size="18" font-weight="700" x="538" y="789">3계층 구조</text><rect fill="#f4ece2" height="44" rx="22" ry="22" stroke="#d9cfbf" stroke-width="1.8" width="182" x="664" y="760" /><text fill="#121316" font-size="18" font-weight="700" x="682" y="789">OpenSearch 적재</text></svg>