<?xml version="1.0" encoding="utf-8" ?>
<svg baseProfile="full" height="960" style="font-family:Noto Sans KR, Apple SD Gothic Neo, sans-serif;" version="1.1" viewBox="0 0 1600 960" width="1600" xmlns="http://www.w3.org/2000/svg" xmlns:ev="http://www.w3.org/2001/xml-events" xmlns:xlink="http://www.w3.org/1999/xlink"><defs><marker id="arrow" markerWidth="10" markerHeight="10" orient="auto" refX="10" refY="5" markerUnits="userSpaceOnUse"><polyline points="0,1 9,5 0,9" fill="none" stroke="#bb5a21" stroke-width="1.8" stroke-linecap="round" stroke-linejoin="round" /></marker></defs><rect fill="#fbf7f0" height="100%" width="100%" x="0" y="0" /><rect fill="#fffdfa" height="852" rx="34" ry="34" stroke="#d9cfbf" stroke-width="2" width="1492" x="54" y="52" /><text fill="#bb5a21" font-size="22" font-weight="800" x="94" y="104">핵심 구조</text><text fill="#121316" font-size="46" font-weight="800" x="94" y="156">3계층 인덱싱</text><text fill="#5b6169" font-size="21" font-weight="500" x="94" y="202">원본, 문맥, 세부 요소를 나누고 메타데이터로 연결하는 구조</text><rect fill="#efe1d4" height="200" rx="26" ry="26" stroke="#d9cfbf" stroke-width="2.2" width="380" x="92" y="300" /><text fill="#121316" font-size="30" font-weight="800" x="118" y="346">Document</text><line stroke="#d9cfbf" stroke-width="1.6" x1="118" x2="446" y1="362" y2="362" /><text fill="#5b6169" font-size="21" font-weight="500" x="118" y="396">파일 단위 정보</text><text fill="#5b6169" font-size="21" font-weight="500" x="118" y="426">file_id · 도메인 ·</text><text fill="#5b6169" font-size="21" font-weight="500" x="118" y="456">모달리티</text><text fill="#5b6169" font-size="21" font-weight="500" x="118" y="486">생성일 · 언어 ·</text><text fill="#5b6169" font-size="21" font-weight="500" x="118" y="516">원본 경로</text><rect fill="#fffdfa" height="200" rx="26" ry="26" stroke="#d9cfbf" stroke-width="2.2" width="380" x="518" y="300" /><text fill="#121316" font-size="30" font-weight="800" x="544" y="346">Chunk</text><line stroke="#d9cfbf" stroke-width="1.6" x1="544" x2="872" y1="362" y2="362" /><text fill="#5b6169" font-size="21" font-weight="500" x="544" y="396">문맥 단위 분리</text><text fill="#5b6169" font-size="21" font-weight="500" x="544" y="426">chunk_id · doc_id</text><text fill="#5b6169" font-size="21" font-weight="500" x="544" y="456">참조</text><text fill="#5b6169" font-size="21" font-weight="500" x="544" y="486">순서번호 · 텍스트</text><text fill="#5b6169" font-size="21" font-weight="500" x="544" y="516">본문 · 요약</text><rect fill="#fffdfa" height="200" rx="26" ry="26" stroke="#d9cfbf" stroke-width="2.2" width="380" x="944" y="300" /><text fill="#121316" font-size="30" font-weight="800" x="970" y="346">Element</text><line stroke="#d9cfbf" stroke-width="1.6" x1="970" x2="1298" y1="362" y2="362" /><text fill="#5b6169" font-size="21" font-weight="500" x="970" y="396">세부 요소</text><text fill="#5b6169" font-size="21" font-weight="500" x="970" y="426">(텍스트/표/이미지)</text><text fill="#5b6169" font-size="21" font-weight="500" x="970" y="456">elem_id · chunk_id</text><text fill="#5b6169" font-size="21" font-weight="500" x="970" y="486">참조</text><text fill="#5b6169" font-size="21" font-weight="500" x="970" y="516">유형 · 내용 · 좌표</text><text fill="#5b6169" font-size="21" font-weight="500" x="970" y="546">· 캡션</text><line marker-end="url(#arrow)" stroke="#bb5a21" stroke-width="3" x1="472" x2="518" y1="400" y2="400" /><line marker-end="url(#arrow)" stroke="#bb5a21" stroke-width="3" x1="898" x2="944" y1="400" y2="400" /><line marker-end="url(#arrow)" stroke="#bb5a21" stroke-dasharray="10 6" stroke-width="3" x1="944" x2="898" y1="440" y2="440" /><line marker-end="url(#arrow)" stroke="#bb5a21" stroke-dasharray="10 6" stroke-width="3" x1="518" x2="472" y1="440" y2="440" /><text fill="#bb5a21" font-size="16" font-weight="800" text-anchor="middle" x="495" y="390">1 : N</text><text fill="#bb5a21" font-size="16" font-weight="800" text-anchor="middle" x="921" y="390">1 : N</text><rect fill="#f4ece2" height="96" rx="20" ry="20" stroke="#d9cfbf" stroke-width="2" width="840" x="380" y="560" /><text fill="#121316" font-size="24" font-weight="800" x="410" y="598">OpenSearch 인덱스</text><text fill="#5b6169" font-size="18" font-weight="500" x="410" y="630">3계층 스키마 · 텍스트/이미지/PDF 공통 구조 · n8n 자동화 파이프라인으로 적재</text><polyline fill="none" marker-end="url(#arrow)" points="282,500 282,530 800,530 800,560" stroke="#bb5a21" stroke-width="3" /><polyline fill="none" marker-end="url(#arrow)" points="708,500 708,530 800,530 800,560" stroke="#bb5a21" stroke-width="3" /><polyline fill="none" marker-end="url(#arrow)" points="1134,500 1134,530 800,530 800,560" stroke="#bb5a21" stroke-width="3" /><rect fill="#f4ece2" height="44" rx="22" ry="22" stroke="#d9cfbf" stroke-width="1.8" width="124" x="92" y="708" /><text fill="#121316" font-size="18" font-weight="700" x="110" y="737">원본 단위</text><rect fill="#f4ece2" height="44" rx="22" ry="22" stroke="#d9cfbf" stroke-width="1.8" width="124" x="228" y="708" /><text fill="#121316" font-size="18" font-weight="700" x="246" y="737">문맥 단위</text><rect fill="#f4ece2" height="44" rx="22" ry="22" stroke="#d9cfbf" stroke-width="1.8" width="124" x="364" y="708" /><text fill="#121316" font-size="18" font-weight="700" x="382" y="737">세부 요소</text><rect fill="#f4ece2" height="44" rx="22" ry="22" stroke="#d9cfbf" stroke-width="1.8" width="182" x="500" y="708" /><text fill="#121316" font-size="18" font-weight="700" x="518" y="737">메타데이터 연결</text><rect fill="#f4ece2" height="44" rx="22" ry="22" stroke="#d9cfbf" stroke-width="1.8" width="132" x="694" y="708" /><text fill="#121316" font-size="18" font-weight="700" x="712" y="737">OpenSearch</text></svg>