<?xml version="1.0" encoding="utf-8" ?>
<svg baseProfile="full" height="1020" style="font-family:Noto Sans KR, Apple SD Gothic Neo, sans-serif;" version="1.1" viewBox="0 0 1600 1020" width="1600" xmlns="http://www.w3.org/2000/svg" xmlns:ev="http://www.w3.org/2001/xml-events" xmlns:xlink="http://www.w3.org/1999/xlink"><defs><marker id="arrow" markerWidth="10" markerHeight="10" orient="auto" refX="10" refY="5" markerUnits="userSpaceOnUse"><polyline points="0,1 9,5 0,9" fill="none" stroke="#bb5a21" stroke-width="1.8" stroke-linecap="round" stroke-linejoin="round" /></marker></defs><rect fill="#fbf7f0" height="100%" width="100%" x="0" y="0" /><rect fill="#fffdfa" height="912" rx="34" ry="34" stroke="#d9cfbf" stroke-width="2" width="1492" x="54" y="52" /><text fill="#bb5a21" font-size="22" font-weight="800" x="94" y="104">전체 구조</text><text fill="#121316" font-size="46" font-weight="800" x="94" y="156">철강 제조 AI 어시스턴트</text><text fill="#5b6169" font-size="21" font-weight="500" x="94" y="202">4개 독립 MCP 서버와 LangChain ReAct 에이전트로 구성한 멀티</text><text fill="#5b6169" font-size="21" font-weight="500" x="94" y="232">에이전트 아키텍처</text><rect fill="#fffdfa" height="92" rx="26" ry="26" stroke="#d9cfbf" stroke-width="2.2" width="640" x="480" y="260" /><text fill="#121316" font-size="30" font-weight="800" x="506" y="306">Streamlit UI  :8501</text><line stroke="#d9cfbf" stroke-width="1.6" x1="506" x2="1094" y1="322" y2="322" /><text fill="#5b6169" font-size="21" font-weight="500" x="506" y="356">사용자 질의 입력 · 응답 표시 · DT</text><text fill="#5b6169" font-size="21" font-weight="500" x="506" y="386">검증 · 관리</text><rect fill="#efe1d4" height="92" rx="26" ry="26" stroke="#d9cfbf" stroke-width="2.2" width="920" x="340" y="400" /><text fill="#121316" font-size="30" font-weight="800" x="366" y="446">LangChain ReAct Agent</text><line stroke="#d9cfbf" stroke-width="1.6" x1="366" x2="1234" y1="462" y2="462" /><text fill="#5b6169" font-size="21" font-weight="500" x="366" y="496">MultiServerMCPClient · Ollama qwen3:8b · 도구 호출 기반</text><text fill="#5b6169" font-size="21" font-weight="500" x="366" y="526">오케스트레이션</text><text fill="#bb5a21" font-size="15" font-weight="800" text-anchor="middle" x="800" y="370">Streamlit ↔ Agent</text><text fill="#bb5a21" font-size="15" font-weight="800" text-anchor="middle" x="800" y="510">FastMCP 3.x  streamable-http</text><rect fill="#fffdfa" height="176" rx="26" ry="26" stroke="#d9cfbf" stroke-width="2.2" width="320" x="124" y="540" /><text fill="#121316" font-size="30" font-weight="800" x="150" y="586">Router  :8010</text><line stroke="#d9cfbf" stroke-width="1.6" x1="150" x2="418" y1="602" y2="602" /><text fill="#5b6169" font-size="21" font-weight="500" x="150" y="636">질의 도메인 분류</text><text fill="#5b6169" font-size="21" font-weight="500" x="150" y="666">keyword scoring</text><text fill="#5b6169" font-size="21" font-weight="500" x="150" y="696">catalog.yaml 기반</text><rect fill="#fffdfa" height="176" rx="26" ry="26" stroke="#d9cfbf" stroke-width="2.2" width="320" x="468" y="540" /><text fill="#121316" font-size="30" font-weight="800" x="494" y="586">Guidance  :8011</text><line stroke="#d9cfbf" stroke-width="1.6" x1="494" x2="762" y1="602" y2="602" /><text fill="#5b6169" font-size="21" font-weight="500" x="494" y="636">작업표준서 검색</text><text fill="#5b6169" font-size="21" font-weight="500" x="494" y="666">OpenSearch 인덱스</text><text fill="#5b6169" font-size="21" font-weight="500" x="494" y="696">35건 DK-S-W-xxxx</text><rect fill="#fffdfa" height="176" rx="26" ry="26" stroke="#d9cfbf" stroke-width="2.2" width="320" x="812" y="540" /><text fill="#121316" font-size="30" font-weight="800" x="838" y="586">Knowhow  :8012</text><line stroke="#d9cfbf" stroke-width="1.6" x1="838" x2="1106" y1="602" y2="602" /><text fill="#5b6169" font-size="21" font-weight="500" x="838" y="636">조업 노하우 조회</text><text fill="#5b6169" font-size="21" font-weight="500" x="838" y="666">LangGraph</text><text fill="#5b6169" font-size="21" font-weight="500" x="838" y="696">KnowhowGraph</text><text fill="#5b6169" font-size="21" font-weight="500" x="838" y="726">4도메인 177건</text><text fill="#5b6169" font-size="21" font-weight="500" x="838" y="756">사례</text><rect fill="#fffdfa" height="176" rx="26" ry="26" stroke="#d9cfbf" stroke-width="2.2" width="320" x="1156" y="540" /><text fill="#121316" font-size="30" font-weight="800" x="1182" y="586">DT  :8013</text><line stroke="#d9cfbf" stroke-width="1.6" x1="1182" x2="1450" y1="602" y2="602" /><text fill="#5b6169" font-size="21" font-weight="500" x="1182" y="636">설비 데이터 조회</text><text fill="#5b6169" font-size="21" font-weight="500" x="1182" y="666">NL2SQL 5단계</text><text fill="#5b6169" font-size="21" font-weight="500" x="1182" y="696">파이프라인</text><text fill="#5b6169" font-size="21" font-weight="500" x="1182" y="726">PostgreSQL 11</text><text fill="#5b6169" font-size="21" font-weight="500" x="1182" y="756">테이블</text><rect fill="#fffdfa" height="96" rx="18" ry="18" stroke="#d9cfbf" stroke-width="1.8" width="320" x="124" y="760" /><text fill="#121316" font-size="22" font-weight="800" x="142" y="794">OpenSearch</text><line stroke="#d9cfbf" stroke-width="1.2" x1="142" x2="426" y1="806" y2="806" /><text fill="#5b6169" font-size="17" font-weight="500" x="142" y="830">작업표준서 인덱스</text><rect fill="#fffdfa" height="96" rx="18" ry="18" stroke="#d9cfbf" stroke-width="1.8" width="320" x="468" y="760" /><text fill="#121316" font-size="22" font-weight="800" x="486" y="794">skills/ Markdown</text><line stroke="#d9cfbf" stroke-width="1.2" x1="486" x2="770" y1="806" y2="806" /><text fill="#5b6169" font-size="17" font-weight="500" x="486" y="830">177건 사례 파일</text><rect fill="#fffdfa" height="96" rx="18" ry="18" stroke="#d9cfbf" stroke-width="1.8" width="320" x="812" y="760" /><text fill="#121316" font-size="22" font-weight="800" x="830" y="794">PostgreSQL + FAISS</text><line stroke="#d9cfbf" stroke-width="1.2" x1="830" x2="1114" y1="806" y2="806" /><text fill="#5b6169" font-size="17" font-weight="500" x="830" y="830">센서 테이블 · 컬럼</text><text fill="#5b6169" font-size="17" font-weight="500" x="830" y="854">임베딩</text><rect fill="#fffdfa" height="96" rx="18" ry="18" stroke="#d9cfbf" stroke-width="1.8" width="320" x="1156" y="760" /><text fill="#121316" font-size="22" font-weight="800" x="1174" y="794">Langfuse</text><line stroke="#d9cfbf" stroke-width="1.2" x1="1174" x2="1458" y1="806" y2="806" /><text fill="#5b6169" font-size="17" font-weight="500" x="1174" y="830">LLM 호출 관측</text><line marker-end="url(#arrow)" stroke="#bb5a21" stroke-width="3" x1="800" x2="800" y1="352" y2="400" /><polyline fill="none" marker-end="url(#arrow)" points="800,492 800,520 284,520 284,540" stroke="#bb5a21" stroke-width="3" /><polyline fill="none" marker-end="url(#arrow)" points="800,492 800,520 628,520 628,540" stroke="#bb5a21" stroke-width="3" /><polyline fill="none" marker-end="url(#arrow)" points="800,492 800,520 972,520 972,540" stroke="#bb5a21" stroke-width="3" /><polyline fill="none" marker-end="url(#arrow)" points="800,492 800,520 1316,520 1316,540" stroke="#bb5a21" stroke-width="3" /><line marker-end="url(#arrow)" stroke="#bb5a21" stroke-width="3" x1="284" x2="284" y1="716" y2="760" /><line marker-end="url(#arrow)" stroke="#bb5a21" stroke-width="3" x1="628" x2="628" y1="716" y2="760" /><line marker-end="url(#arrow)" stroke="#bb5a21" stroke-width="3" x1="972" x2="972" y1="716" y2="760" /><line marker-end="url(#arrow)" stroke="#bb5a21" stroke-width="3" x1="1316" x2="1316" y1="716" y2="760" /><rect fill="#f4ece2" height="44" rx="22" ry="22" stroke="#d9cfbf" stroke-width="1.8" width="124" x="92" y="900" /><text fill="#121316" font-size="18" font-weight="700" x="110" y="929">Streamlit</text><rect fill="#f4ece2" height="44" rx="22" ry="22" stroke="#d9cfbf" stroke-width="1.8" width="182" x="228" y="900" /><text fill="#121316" font-size="18" font-weight="700" x="246" y="929">LangChain ReAct</text><rect fill="#f4ece2" height="44" rx="22" ry="22" stroke="#d9cfbf" stroke-width="1.8" width="142" x="422" y="900" /><text fill="#121316" font-size="18" font-weight="700" x="440" y="929">FastMCP 3.x</text><rect fill="#f4ece2" height="44" rx="22" ry="22" stroke="#d9cfbf" stroke-width="1.8" width="182" x="576" y="900" /><text fill="#121316" font-size="18" font-weight="700" x="594" y="929">Ollama qwen3:8b</text><rect fill="#f4ece2" height="44" rx="22" ry="22" stroke="#d9cfbf" stroke-width="1.8" width="124" x="770" y="900" /><text fill="#121316" font-size="18" font-weight="700" x="788" y="929">Langfuse</text></svg>