<svg viewBox="0 0 960 600" role="img" aria-labelledby="harness-system-architecture-title harness-system-architecture-desc" xmlns="http://www.w3.org/2000/svg"><title id="harness-system-architecture-title">Personal Agent Harness 전체 시스템</title><desc id="harness-system-architecture-desc">Git 정본의 manifest와 canonical skill, runtime package가 Harness Core에서 해석되고 Codex, Claude, Gemini projection과 Personal Wiki, Work Toolbox runtime으로 연결되는 구조.</desc>
<defs>
  <marker id="arrow" markerWidth="8" markerHeight="6" refX="7" refY="3" orient="auto"><polygon points="0 0, 8 3, 0 6" fill="#4f5d75"/></marker>
  <marker id="arrow-accent" markerWidth="8" markerHeight="6" refX="7" refY="3" orient="auto"><polygon points="0 0, 8 3, 0 6" fill="#eb6c36"/></marker>
  <marker id="arrow-link" markerWidth="8" markerHeight="6" refX="7" refY="3" orient="auto"><polygon points="0 0, 8 3, 0 6" fill="#2e5aa8"/></marker>
  <marker id="arrow-open" markerWidth="8" markerHeight="6" refX="7" refY="3" orient="auto"><polyline points="0 0, 8 3, 0 6" fill="none" stroke="#4f5d75" stroke-width="1.2"/></marker>
  <style>1&amp;family=Geist:wght@400;500;600&amp;family=Geist+Mono:wght@400;500;600&amp;display=swap');</style>
</defs><rect width="100%" height="100%" fill="#f5f5f5"/><rect x="24" y="48" width="192" height="416" rx="8" fill="rgba(45,49,66,0.02)" stroke="rgba(45,49,66,0.12)" stroke-width="0.8"/><rect x="36" y="56" width="128" height="12" rx="2" fill="#f5f5f5"/><text x="40" y="65" fill="rgba(45,49,66,0.46)" font-size="8" font-family="'Geist Mono','SFMono-Regular','Noto Sans Mono CJK KR',monospace" letter-spacing="0.12em">GIT AUTHORITY</text><rect x="288" y="192" width="224" height="128" rx="8" fill="rgba(45,49,66,0.02)" stroke="rgba(45,49,66,0.12)" stroke-width="0.8"/><rect x="300" y="200" width="144" height="12" rx="2" fill="#f5f5f5"/><text x="304" y="209" fill="rgba(45,49,66,0.46)" font-size="8" font-family="'Geist Mono','SFMono-Regular','Noto Sans Mono CJK KR',monospace" letter-spacing="0.12em">CONVERGENCE CORE</text><rect x="544" y="48" width="392" height="416" rx="8" fill="rgba(45,49,66,0.02)" stroke="rgba(45,49,66,0.12)" stroke-width="0.8"/><rect x="556" y="56" width="224" height="12" rx="2" fill="#f5f5f5"/><text x="560" y="65" fill="rgba(45,49,66,0.46)" font-size="8" font-family="'Geist Mono','SFMono-Regular','Noto Sans Mono CJK KR',monospace" letter-spacing="0.12em">AGENT + RUNTIME PROJECTIONS</text><path d="M 184,112 H 244 Q 252,112 252,120 V 232 Q 252,240 260,240 H 320" fill="none" stroke="#4f5d75" stroke-width="1.2" marker-end="url(#arrow)"/><path d="M 184,256 H 320" fill="none" stroke="#4f5d75" stroke-width="1.2" marker-end="url(#arrow)"/><path d="M 200,400 H 252 Q 260,400 260,392 V 280 Q 260,272 268,272 H 320" fill="none" stroke="#4f5d75" stroke-width="1.2" marker-end="url(#arrow)"/><path d="M 480,240 H 520 Q 528,240 528,232 V 120 Q 528,112 536,112 H 576" fill="none" stroke="#4f5d75" stroke-width="1.2" marker-end="url(#arrow)"/><path d="M 480,256 H 576" fill="none" stroke="#4f5d75" stroke-width="1.2" marker-end="url(#arrow)"/><path d="M 480,272 H 520 Q 528,272 528,280 V 392 Q 528,400 536,400 H 576" fill="none" stroke="#4f5d75" stroke-width="1.2" marker-end="url(#arrow)"/><path d="M 200,384 H 232 Q 240,384 240,392 V 496 Q 240,504 248,504 H 740 Q 748,504 748,496 V 168 Q 748,160 756,160 H 792" fill="none" stroke="#4f5d75" stroke-width="1.2" marker-end="url(#arrow)"/><path d="M 200,416 H 216 Q 224,416 224,424 V 472 Q 224,480 232,480 H 756 Q 764,480 764,472 V 392 Q 764,384 772,384 H 792" fill="none" stroke="#4f5d75" stroke-width="1.2" marker-end="url(#arrow)"/><path d="M 792,148 H 764 Q 756,148 756,140 V 120 Q 756,112 748,112 H 720" fill="none" stroke="#4f5d75" stroke-width="1.2" marker-end="url(#arrow)" stroke-dasharray="5,4"/><path d="M 792,172 H 764 Q 756,172 756,180 V 248 Q 756,256 748,256 H 720" fill="none" stroke="#4f5d75" stroke-width="1.2" marker-end="url(#arrow)" stroke-dasharray="5,4"/><rect x="746" y="120" width="60" height="12" rx="2" fill="#f5f5f5"/><text x="776" y="129" fill="#7a8399" font-size="8" font-family="'Geist Mono','SFMono-Regular','Noto Sans Mono CJK KR',monospace" text-anchor="middle">판단 보조</text><rect x="768" y="208" width="60" height="12" rx="2" fill="#f5f5f5"/><text x="772" y="217" fill="#7a8399" font-size="8" font-family="'Geist Mono','SFMono-Regular','Noto Sans Mono CJK KR',monospace">판단 보조</text><g id="node-manifest"><rect x="40" y="80" width="144" height="64" rx="6" fill="#f5f5f5"/><rect x="40" y="80" width="144" height="64" rx="6" fill="rgba(235,108,54,0.08)" stroke="#eb6c36" stroke-width="1"/><rect x="48" y="88" width="60" height="12" rx="2" fill="transparent" stroke="#eb6c36" stroke-opacity="0.40" stroke-width="0.8"/><text x="78" y="97" fill="#eb6c36" fill-opacity="0.82" font-size="8" font-family="'Geist Mono','SFMono-Regular','Noto Sans Mono CJK KR',monospace" text-anchor="middle" letter-spacing="0.08em">CONTRACT</text><text x="112" y="122" fill="#2d3142" font-size="12" font-weight="600" font-family="'Geist','Apple SD Gothic Neo','Noto Sans KR',system-ui,sans-serif" text-anchor="middle"><tspan x="112" dy="0">Manifest</tspan></text></g><g id="node-skills"><rect x="40" y="224" width="144" height="64" rx="6" fill="#f5f5f5"/><rect x="40" y="224" width="144" height="64" rx="6" fill="#ffffff" stroke="#2d3142" stroke-width="1"/><rect x="48" y="232" width="48" height="12" rx="2" fill="transparent" stroke="#2d3142" stroke-opacity="0.40" stroke-width="0.8"/><text x="72" y="241" fill="#2d3142" fill-opacity="0.82" font-size="8" font-family="'Geist Mono','SFMono-Regular','Noto Sans Mono CJK KR',monospace" text-anchor="middle" letter-spacing="0.08em">SOURCE</text><text x="112" y="266" fill="#2d3142" font-size="12" font-weight="600" font-family="'Geist','Apple SD Gothic Neo','Noto Sans KR',system-ui,sans-serif" text-anchor="middle"><tspan x="112" dy="0">Canonical Skills</tspan></text></g><g id="node-packages"><rect x="40" y="368" width="160" height="64" rx="6" fill="#f5f5f5"/><rect x="40" y="368" width="160" height="64" rx="6" fill="#ffffff" stroke="#2d3142" stroke-width="1"/><rect x="48" y="376" width="48" height="12" rx="2" fill="transparent" stroke="#2d3142" stroke-opacity="0.40" stroke-width="0.8"/><text x="72" y="385" fill="#2d3142" fill-opacity="0.82" font-size="8" font-family="'Geist Mono','SFMono-Regular','Noto Sans Mono CJK KR',monospace" text-anchor="middle" letter-spacing="0.08em">SOURCE</text><text x="120" y="410" fill="#2d3142" font-size="12" font-weight="600" font-family="'Geist','Apple SD Gothic Neo','Noto Sans KR',system-ui,sans-serif" text-anchor="middle"><tspan x="120" dy="0">Runtime Packages</tspan></text></g><g id="node-core"><rect x="320" y="224" width="160" height="64" rx="6" fill="#f5f5f5"/><rect x="320" y="224" width="160" height="64" rx="6" fill="rgba(235,108,54,0.08)" stroke="#eb6c36" stroke-width="1"/><rect x="328" y="232" width="36" height="12" rx="2" fill="transparent" stroke="#eb6c36" stroke-opacity="0.40" stroke-width="0.8"/><text x="346" y="241" fill="#eb6c36" fill-opacity="0.82" font-size="8" font-family="'Geist Mono','SFMono-Regular','Noto Sans Mono CJK KR',monospace" text-anchor="middle" letter-spacing="0.08em">CORE</text><text x="400" y="262" fill="#2d3142" font-size="12" font-weight="600" font-family="'Geist','Apple SD Gothic Neo','Noto Sans KR',system-ui,sans-serif" text-anchor="middle"><tspan x="400" dy="0">Harness Core</tspan></text><text x="400" y="278" fill="#4f5d75" font-size="8" font-weight="400" font-family="'Geist Mono','SFMono-Regular','Noto Sans Mono CJK KR',monospace" text-anchor="middle"><tspan x="400" dy="0">status · reconcile</tspan></text></g><g id="node-codex"><rect x="576" y="80" width="144" height="64" rx="6" fill="#f5f5f5"/><rect x="576" y="80" width="144" height="64" rx="6" fill="#ffffff" stroke="#2d3142" stroke-width="1"/><rect x="584" y="88" width="40" height="12" rx="2" fill="transparent" stroke="#2d3142" stroke-opacity="0.40" stroke-width="0.8"/><text x="604" y="97" fill="#2d3142" fill-opacity="0.82" font-size="8" font-family="'Geist Mono','SFMono-Regular','Noto Sans Mono CJK KR',monospace" text-anchor="middle" letter-spacing="0.08em">AGENT</text><text x="648" y="122" fill="#2d3142" font-size="12" font-weight="600" font-family="'Geist','Apple SD Gothic Neo','Noto Sans KR',system-ui,sans-serif" text-anchor="middle"><tspan x="648" dy="0">Codex</tspan></text></g><g id="node-claude"><rect x="576" y="224" width="144" height="64" rx="6" fill="#f5f5f5"/><rect x="576" y="224" width="144" height="64" rx="6" fill="#ffffff" stroke="#2d3142" stroke-width="1"/><rect x="584" y="232" width="40" height="12" rx="2" fill="transparent" stroke="#2d3142" stroke-opacity="0.40" stroke-width="0.8"/><text x="604" y="241" fill="#2d3142" fill-opacity="0.82" font-size="8" font-family="'Geist Mono','SFMono-Regular','Noto Sans Mono CJK KR',monospace" text-anchor="middle" letter-spacing="0.08em">AGENT</text><text x="648" y="266" fill="#2d3142" font-size="12" font-weight="600" font-family="'Geist','Apple SD Gothic Neo','Noto Sans KR',system-ui,sans-serif" text-anchor="middle"><tspan x="648" dy="0">Claude</tspan></text></g><g id="node-gemini"><rect x="576" y="368" width="144" height="64" rx="6" fill="#f5f5f5"/><rect x="576" y="368" width="144" height="64" rx="6" fill="#ffffff" stroke="#2d3142" stroke-width="1"/><rect x="584" y="376" width="40" height="12" rx="2" fill="transparent" stroke="#2d3142" stroke-opacity="0.40" stroke-width="0.8"/><text x="604" y="385" fill="#2d3142" fill-opacity="0.82" font-size="8" font-family="'Geist Mono','SFMono-Regular','Noto Sans Mono CJK KR',monospace" text-anchor="middle" letter-spacing="0.08em">AGENT</text><text x="648" y="410" fill="#2d3142" font-size="12" font-weight="600" font-family="'Geist','Apple SD Gothic Neo','Noto Sans KR',system-ui,sans-serif" text-anchor="middle"><tspan x="648" dy="0">Gemini</tspan></text></g><g id="node-wiki"><rect x="792" y="128" width="144" height="64" rx="6" fill="#f5f5f5"/><rect x="792" y="128" width="144" height="64" rx="6" fill="rgba(45,49,66,0.03)" stroke="rgba(45,49,66,0.30)" stroke-width="1"/><rect x="800" y="136" width="64" height="12" rx="2" fill="transparent" stroke="rgba(45,49,66,0.30)" stroke-opacity="0.40" stroke-width="0.8"/><text x="832" y="145" fill="rgba(45,49,66,0.30)" fill-opacity="0.82" font-size="8" font-family="'Geist Mono','SFMono-Regular','Noto Sans Mono CJK KR',monospace" text-anchor="middle" letter-spacing="0.08em">KNOWLEDGE</text><text x="864" y="170" fill="#2d3142" font-size="12" font-weight="600" font-family="'Geist','Apple SD Gothic Neo','Noto Sans KR',system-ui,sans-serif" text-anchor="middle"><tspan x="864" dy="0">Personal Wiki</tspan></text></g><g id="node-toolbox"><rect x="792" y="352" width="144" height="64" rx="6" fill="#f5f5f5"/><rect x="792" y="352" width="144" height="64" rx="6" fill="rgba(45,49,66,0.03)" stroke="rgba(45,49,66,0.30)" stroke-width="1"/><rect x="800" y="360" width="32" height="12" rx="2" fill="transparent" stroke="rgba(45,49,66,0.30)" stroke-opacity="0.40" stroke-width="0.8"/><text x="816" y="369" fill="rgba(45,49,66,0.30)" fill-opacity="0.82" font-size="8" font-family="'Geist Mono','SFMono-Regular','Noto Sans Mono CJK KR',monospace" text-anchor="middle" letter-spacing="0.08em">APP</text><text x="864" y="394" fill="#2d3142" font-size="12" font-weight="600" font-family="'Geist','Apple SD Gothic Neo','Noto Sans KR',system-ui,sans-serif" text-anchor="middle"><tspan x="864" dy="0">Work Toolbox</tspan></text></g><line x1="40" y1="548" x2="920" y2="548" stroke="rgba(45,49,66,0.12)" stroke-width="0.8"/><text x="40" y="572" fill="#4f5d75" font-size="8" font-family="'Geist Mono','SFMono-Regular','Noto Sans Mono CJK KR',monospace" letter-spacing="0.14em">LEGEND</text><rect x="140" y="560" width="28" height="16" rx="4" fill="#ffffff" stroke="#4f5d75" stroke-width="1"/><text x="176" y="572" fill="#4f5d75" font-size="8" font-family="'Geist','Apple SD Gothic Neo','Noto Sans KR',system-ui,sans-serif">처리·구성요소</text><rect x="360" y="560" width="28" height="16" rx="4" fill="rgba(235,108,54,0.08)" stroke="#eb6c36" stroke-width="1"/><text x="396" y="572" fill="#4f5d75" font-size="8" font-family="'Geist','Apple SD Gothic Neo','Noto Sans KR',system-ui,sans-serif">핵심 경계</text><line x1="580" y1="568" x2="608" y2="568" stroke="#4f5d75" stroke-width="1.2" stroke-dasharray="5,4"/><text x="616" y="572" fill="#4f5d75" font-size="8" font-family="'Geist','Apple SD Gothic Neo','Noto Sans KR',system-ui,sans-serif">조건·보조 흐름</text></svg>
