<svg viewBox="0 0 960 600" role="img" aria-labelledby="multimodal-system-architecture-title multimodal-system-architecture-desc" xmlns="http://www.w3.org/2000/svg"><title id="multimodal-system-architecture-title">Multimodal RAG Search 전체 시스템</title><desc id="multimodal-system-architecture-desc">API 요청이 파이프라인을 통해 Chunking, Analysis와 D2T, Indexing 단계로 진행되고 저장소, 검색엔진, 모델 제공자와 연결되는 구조.</desc>
<defs>
  <marker id="arrow" markerWidth="8" markerHeight="6" refX="7" refY="3" orient="auto"><polygon points="0 0, 8 3, 0 6" fill="#4f5d75"/></marker>
  <marker id="arrow-accent" markerWidth="8" markerHeight="6" refX="7" refY="3" orient="auto"><polygon points="0 0, 8 3, 0 6" fill="#eb6c36"/></marker>
  <marker id="arrow-link" markerWidth="8" markerHeight="6" refX="7" refY="3" orient="auto"><polygon points="0 0, 8 3, 0 6" fill="#2e5aa8"/></marker>
  <marker id="arrow-open" markerWidth="8" markerHeight="6" refX="7" refY="3" orient="auto"><polyline points="0 0, 8 3, 0 6" fill="none" stroke="#4f5d75" stroke-width="1.2"/></marker>
  <style>1&amp;family=Geist:wght@400;500;600&amp;family=Geist+Mono:wght@400;500;600&amp;display=swap');</style>
</defs><rect width="100%" height="100%" fill="#f5f5f5"/><rect x="24" y="192" width="364" height="128" rx="8" fill="rgba(45,49,66,0.02)" stroke="rgba(45,49,66,0.12)" stroke-width="0.8"/><rect x="36" y="200" width="176" height="12" rx="2" fill="#f5f5f5"/><text x="40" y="209" fill="rgba(45,49,66,0.46)" font-size="8" font-family="'Geist Mono','SFMono-Regular','Noto Sans Mono CJK KR',monospace" letter-spacing="0.12em">API + ORCHESTRATION</text><rect x="396" y="48" width="400" height="416" rx="8" fill="rgba(45,49,66,0.02)" stroke="rgba(45,49,66,0.12)" stroke-width="0.8"/><rect x="408" y="56" width="112" height="12" rx="2" fill="#f5f5f5"/><text x="412" y="65" fill="rgba(45,49,66,0.46)" font-size="8" font-family="'Geist Mono','SFMono-Regular','Noto Sans Mono CJK KR',monospace" letter-spacing="0.12em">PROCESSING</text><rect x="776" y="48" width="160" height="416" rx="8" fill="rgba(45,49,66,0.02)" stroke="rgba(45,49,66,0.12)" stroke-width="0.8"/><rect x="788" y="56" width="152" height="12" rx="2" fill="#f5f5f5"/><text x="792" y="65" fill="rgba(45,49,66,0.46)" font-size="8" font-family="'Geist Mono','SFMono-Regular','Noto Sans Mono CJK KR',monospace" letter-spacing="0.12em">STORAGE + SEARCH</text><path d="M 184,256 H 220" fill="none" stroke="#2e5aa8" stroke-width="1.2" marker-end="url(#arrow-link)"/><path d="M 372,240 H 384 Q 392,240 392,232 V 120 Q 392,112 400,112 H 412" fill="none" stroke="#4f5d75" stroke-width="1.2" marker-end="url(#arrow)"/><path d="M 372,256 H 412" fill="none" stroke="#4f5d75" stroke-width="1.2" marker-end="url(#arrow)"/><path d="M 372,272 H 384 Q 392,272 392,280 V 392 Q 392,400 400,400 H 412" fill="none" stroke="#4f5d75" stroke-width="1.2" marker-end="url(#arrow)"/><path d="M 572,112 H 620" fill="none" stroke="#4f5d75" stroke-width="1.2" marker-end="url(#arrow)"/><path d="M 780,112 H 792" fill="none" stroke="#4f5d75" stroke-width="1.2" marker-end="url(#arrow)"/><path d="M 588,256 H 620" fill="none" stroke="#2e5aa8" stroke-width="1.2" marker-end="url(#arrow-link)"/><path d="M 572,400 H 792" fill="none" stroke="#4f5d75" stroke-width="1.2" marker-end="url(#arrow)"/><g id="node-api"><rect x="40" y="224" width="144" height="64" rx="6" fill="#f5f5f5"/><rect x="40" y="224" width="144" height="64" rx="6" fill="rgba(79,93,117,0.10)" stroke="#7a8399" stroke-width="1"/><rect x="48" y="232" width="32" height="12" rx="2" fill="transparent" stroke="#7a8399" stroke-opacity="0.40" stroke-width="0.8"/><text x="64" y="241" fill="#7a8399" fill-opacity="0.82" font-size="8" font-family="'Geist Mono','SFMono-Regular','Noto Sans Mono CJK KR',monospace" text-anchor="middle" letter-spacing="0.08em">API</text><text x="112" y="266" fill="#2d3142" font-size="12" font-weight="600" font-family="'Geist','Apple SD Gothic Neo','Noto Sans KR',system-ui,sans-serif" text-anchor="middle"><tspan x="112" dy="0">HTTP Client · API</tspan></text></g><g id="node-pipe"><rect x="220" y="224" width="152" height="64" rx="6" fill="#f5f5f5"/><rect x="220" y="224" width="152" height="64" rx="6" fill="rgba(235,108,54,0.08)" stroke="#eb6c36" stroke-width="1"/><rect x="228" y="232" width="36" height="12" rx="2" fill="transparent" stroke="#eb6c36" stroke-opacity="0.40" stroke-width="0.8"/><text x="246" y="241" fill="#eb6c36" fill-opacity="0.82" font-size="8" font-family="'Geist Mono','SFMono-Regular','Noto Sans Mono CJK KR',monospace" text-anchor="middle" letter-spacing="0.08em">ORCH</text><text x="296" y="266" fill="#2d3142" font-size="12" font-weight="600" font-family="'Geist','Apple SD Gothic Neo','Noto Sans KR',system-ui,sans-serif" text-anchor="middle"><tspan x="296" dy="0">PipelineGraph</tspan></text></g><g id="node-chunk"><rect x="412" y="80" width="160" height="64" rx="6" fill="#f5f5f5"/><rect x="412" y="80" width="160" height="64" rx="6" fill="#ffffff" stroke="#2d3142" stroke-width="1"/><rect x="420" y="88" width="40" height="12" rx="2" fill="transparent" stroke="#2d3142" stroke-opacity="0.40" stroke-width="0.8"/><text x="440" y="97" fill="#2d3142" fill-opacity="0.82" font-size="8" font-family="'Geist Mono','SFMono-Regular','Noto Sans Mono CJK KR',monospace" text-anchor="middle" letter-spacing="0.08em">GRAPH</text><text x="492" y="122" fill="#2d3142" font-size="12" font-weight="600" font-family="'Geist','Apple SD Gothic Neo','Noto Sans KR',system-ui,sans-serif" text-anchor="middle"><tspan x="492" dy="0">ChunkingGraph</tspan></text></g><g id="node-analysis"><rect x="412" y="224" width="176" height="64" rx="6" fill="#f5f5f5"/><rect x="412" y="224" width="176" height="64" rx="6" fill="#ffffff" stroke="#2d3142" stroke-width="1"/><rect x="420" y="232" width="40" height="12" rx="2" fill="transparent" stroke="#2d3142" stroke-opacity="0.40" stroke-width="0.8"/><text x="440" y="241" fill="#2d3142" fill-opacity="0.82" font-size="8" font-family="'Geist Mono','SFMono-Regular','Noto Sans Mono CJK KR',monospace" text-anchor="middle" letter-spacing="0.08em">GRAPH</text><text x="500" y="266" fill="#2d3142" font-size="12" font-weight="600" font-family="'Geist','Apple SD Gothic Neo','Noto Sans KR',system-ui,sans-serif" text-anchor="middle"><tspan x="500" dy="0">AnalysisGraph + D2T</tspan></text></g><g id="node-index"><rect x="412" y="368" width="160" height="64" rx="6" fill="#f5f5f5"/><rect x="412" y="368" width="160" height="64" rx="6" fill="#ffffff" stroke="#2d3142" stroke-width="1"/><rect x="420" y="376" width="40" height="12" rx="2" fill="transparent" stroke="#2d3142" stroke-opacity="0.40" stroke-width="0.8"/><text x="440" y="385" fill="#2d3142" fill-opacity="0.82" font-size="8" font-family="'Geist Mono','SFMono-Regular','Noto Sans Mono CJK KR',monospace" text-anchor="middle" letter-spacing="0.08em">GRAPH</text><text x="492" y="410" fill="#2d3142" font-size="12" font-weight="600" font-family="'Geist','Apple SD Gothic Neo','Noto Sans KR',system-ui,sans-serif" text-anchor="middle"><tspan x="492" dy="0">IndexingGraph</tspan></text></g><g id="node-infra"><rect x="620" y="80" width="160" height="64" rx="6" fill="#f5f5f5"/><rect x="620" y="80" width="160" height="64" rx="6" fill="#ffffff" stroke="#2d3142" stroke-width="1"/><rect x="628" y="88" width="40" height="12" rx="2" fill="transparent" stroke="#2d3142" stroke-opacity="0.40" stroke-width="0.8"/><text x="648" y="97" fill="#2d3142" fill-opacity="0.82" font-size="8" font-family="'Geist Mono','SFMono-Regular','Noto Sans Mono CJK KR',monospace" text-anchor="middle" letter-spacing="0.08em">AGENT</text><text x="700" y="122" fill="#2d3142" font-size="12" font-weight="600" font-family="'Geist','Apple SD Gothic Neo','Noto Sans KR',system-ui,sans-serif" text-anchor="middle"><tspan x="700" dy="0">Storage + Identity</tspan></text></g><g id="node-providers"><rect x="620" y="224" width="160" height="64" rx="6" fill="#f5f5f5"/><rect x="620" y="224" width="160" height="64" rx="6" fill="rgba(45,49,66,0.03)" stroke="rgba(45,49,66,0.30)" stroke-width="1"/><rect x="628" y="232" width="60" height="12" rx="2" fill="transparent" stroke="rgba(45,49,66,0.30)" stroke-opacity="0.40" stroke-width="0.8"/><text x="658" y="241" fill="rgba(45,49,66,0.30)" fill-opacity="0.82" font-size="8" font-family="'Geist Mono','SFMono-Regular','Noto Sans Mono CJK KR',monospace" text-anchor="middle" letter-spacing="0.08em">EXTERNAL</text><text x="700" y="266" fill="#2d3142" font-size="12" font-weight="600" font-family="'Geist','Apple SD Gothic Neo','Noto Sans KR',system-ui,sans-serif" text-anchor="middle"><tspan x="700" dy="0">OCR · LLM Provider</tspan></text></g><g id="node-object"><rect x="792" y="80" width="144" height="64" rx="6" fill="#f5f5f5"/><rect x="792" y="80" width="144" height="64" rx="6" fill="rgba(45,49,66,0.05)" stroke="#4f5d75" stroke-width="1"/><rect x="800" y="88" width="40" height="12" rx="2" fill="transparent" stroke="#4f5d75" stroke-opacity="0.40" stroke-width="0.8"/><text x="820" y="97" fill="#4f5d75" fill-opacity="0.82" font-size="8" font-family="'Geist Mono','SFMono-Regular','Noto Sans Mono CJK KR',monospace" text-anchor="middle" letter-spacing="0.08em">STORE</text><text x="864" y="122" fill="#2d3142" font-size="12" font-weight="600" font-family="'Geist','Apple SD Gothic Neo','Noto Sans KR',system-ui,sans-serif" text-anchor="middle"><tspan x="864" dy="0">S3 · MinIO</tspan></text></g><g id="node-search"><rect x="792" y="368" width="144" height="64" rx="6" fill="#f5f5f5"/><rect x="792" y="368" width="144" height="64" rx="6" fill="rgba(45,49,66,0.05)" stroke="#4f5d75" stroke-width="1"/><rect x="800" y="376" width="40" height="12" rx="2" fill="transparent" stroke="#4f5d75" stroke-opacity="0.40" stroke-width="0.8"/><text x="820" y="385" fill="#4f5d75" fill-opacity="0.82" font-size="8" font-family="'Geist Mono','SFMono-Regular','Noto Sans Mono CJK KR',monospace" text-anchor="middle" letter-spacing="0.08em">STORE</text><text x="864" y="410" fill="#2d3142" font-size="12" font-weight="600" font-family="'Geist','Apple SD Gothic Neo','Noto Sans KR',system-ui,sans-serif" text-anchor="middle"><tspan x="864" dy="0">OpenSearch</tspan></text></g><line x1="40" y1="548" x2="920" y2="548" stroke="rgba(45,49,66,0.12)" stroke-width="0.8"/><text x="40" y="572" fill="#4f5d75" font-size="8" font-family="'Geist Mono','SFMono-Regular','Noto Sans Mono CJK KR',monospace" letter-spacing="0.14em">LEGEND</text><rect x="140" y="560" width="28" height="16" rx="4" fill="#ffffff" stroke="#4f5d75" stroke-width="1"/><text x="176" y="572" fill="#4f5d75" font-size="8" font-family="'Geist','Apple SD Gothic Neo','Noto Sans KR',system-ui,sans-serif">처리·구성요소</text><rect x="360" y="560" width="28" height="16" rx="4" fill="rgba(235,108,54,0.08)" stroke="#eb6c36" stroke-width="1"/><text x="396" y="572" fill="#4f5d75" font-size="8" font-family="'Geist','Apple SD Gothic Neo','Noto Sans KR',system-ui,sans-serif">핵심 경계</text></svg>
